<svg width="77" height="75" viewBox="0 0 77 75" fill="none" xmlns="http://www.w3.org/2000/svg">
<path d="M0.994436 58.4514L0.994686 58.4514C1.32441 58.451 1.64051 58.3198 1.87346 58.0864C2.10641 57.853 2.23713 57.5367 2.23689 57.207C2.23664 56.8773 2.10544 56.5611 1.87214 56.3281C1.63884 56.0951 1.32255 55.9643 0.992821 55.9645C0.663093 55.9646 0.346931 56.0958 0.113866 56.329C-0.119199 56.5622 -0.250082 56.8785 -0.25 57.2082C-0.249918 57.538 -0.118876 57.8542 0.114306 58.0873C0.347488 58.3204 0.663715 58.4514 0.993443 58.4514L0.994436 58.4514Z" fill="#A6CEE3" stroke="#1F78B4" stroke-width="0.5"/>
<path d="M6.58447 60.4382H6.58472C7.40839 60.4374 8.198 60.1095 8.77991 59.5266C9.36182 58.9436 9.68838 58.1534 9.68776 57.3298C9.68714 56.5061 9.3594 55.7164 8.77662 55.1343C8.19383 54.5523 7.40373 54.2255 6.58006 54.226C5.75639 54.2264 4.96661 54.5539 4.38441 55.1365C3.80221 55.7192 3.47526 56.5092 3.47546 57.3329C3.47567 58.1565 3.80301 58.9464 4.38551 59.5288C4.968 60.1111 5.75795 60.4382 6.58161 60.4382H6.58447Z" fill="#A6CEE3" stroke="#1F78B4" stroke-width="0.5"/>
<path d="M6.46087 57.2096H6.46112C7.44944 57.2086 8.39689 56.8151 9.09512 56.1157C9.79336 55.4162 10.1852 54.4681 10.1844 53.4797C10.1837 52.4914 9.79045 51.5439 9.09117 50.8455C8.39189 50.1471 7.44385 49.755 6.45553 49.7555C5.46722 49.756 4.51957 50.149 3.82099 50.8481C3.12241 51.5472 2.7301 52.4952 2.73035 53.4835C2.73059 54.4718 3.12337 55.4195 3.8223 56.1183C4.52123 56.817 5.46908 57.2096 6.4574 57.2096H6.46087Z" fill="#1F78B4" stroke="#1F78B4" stroke-width="0.5"/>
<path d="M6.58159 53.9809H6.58183L6.58593 53.9809H6.58594C7.7389 53.9798 8.8442 53.5207 9.65875 52.7048C10.4733 51.8888 10.9304 50.7827 10.9295 49.6297C10.9287 48.4768 10.4699 47.3714 9.65414 46.5566C8.83836 45.7418 7.73238 45.2845 6.57942 45.285C5.42646 45.2856 4.32094 45.7441 3.50598 46.5597C2.69102 47.3752 2.23335 48.4811 2.23364 49.6341C2.23393 50.787 2.69214 51.8927 3.50751 52.7078C4.32288 53.523 5.42863 53.9809 6.58159 53.9809Z" fill="#A6CEE3" stroke="#1F78B4" stroke-width="0.5"/>
<path d="M12.1697 47.2752H12.1699L12.1749 47.2752H12.1749C13.5584 47.2738 14.8847 46.723 15.8621 45.7439C16.8395 44.7648 17.388 43.4375 17.3869 42.0541C17.3859 40.6706 16.8354 39.3442 15.8566 38.3665C14.8777 37.3889 13.5506 36.8401 12.1671 36.8408C10.7837 36.8415 9.45711 37.3916 8.47922 38.3702C7.50133 39.3489 6.95217 40.6758 6.95251 42.0593C6.95286 43.4427 7.50268 44.7694 8.48106 45.7476C9.45944 46.7257 10.7863 47.2752 12.1697 47.2752Z" fill="#A6CEE3" stroke="#1F78B4" stroke-width="0.5"/>
<path d="M12.2939 44.0465H12.294L12.2994 44.0465H12.2994C13.7817 44.045 15.2027 43.4548 16.2499 42.4058C17.2971 41.3568 17.8847 39.9348 17.8836 38.4525C17.8825 36.9703 17.2927 35.5491 16.2439 34.5017C15.1952 33.4542 13.7733 32.8662 12.2911 32.8669C10.8088 32.8677 9.38754 33.4571 8.33982 34.5056C7.2921 35.5541 6.70373 36.9758 6.7041 38.4581C6.70447 39.9403 7.29355 41.3618 8.3418 42.4097C9.39004 43.4577 10.8116 44.0465 12.2939 44.0465Z" fill="#1F78B4" stroke="#1F78B4" stroke-width="0.5"/>
<path d="M12.2966 33.8637H12.2969C13.1205 33.8629 13.9102 33.535 14.4921 32.952C15.074 32.3691 15.4005 31.5789 15.3999 30.7552C15.3993 29.9316 15.0716 29.1419 14.4888 28.5598C13.906 27.9778 13.1159 27.651 12.2922 27.6514C11.4686 27.6518 10.6788 27.9794 10.0966 28.562C9.51437 29.1447 9.18742 29.9347 9.18762 30.7584C9.18783 31.582 9.51517 32.3719 10.0977 32.9542C10.6802 33.5366 11.4701 33.8637 12.2938 33.8637H12.2966Z" fill="#A6CEE3" stroke="#1F78B4" stroke-width="0.5"/>
<path d="M12.1696 37.0924H12.1698L12.1758 37.0924H12.1759C13.8228 37.0907 15.4016 36.435 16.5651 35.2695C17.7286 34.1039 18.3815 32.524 18.3803 30.8771C18.3791 29.2302 17.7238 27.6512 16.5585 26.4874C15.3932 25.3236 13.8134 24.6703 12.1665 24.6711C10.5196 24.6719 8.9405 25.3268 7.7764 26.4918C6.6123 27.6568 5.95857 29.2364 5.95898 30.8833C5.9594 32.5302 6.61391 34.1095 7.77859 35.2739C8.94327 36.4383 10.5227 37.0924 12.1696 37.0924Z" fill="#A6CEE3" stroke="#1F78B4" stroke-width="0.5"/>
<path d="M17.882 28.3997H17.8821L17.8871 28.3997H17.8872C19.2707 28.3983 20.597 27.8475 21.5744 26.8684C22.5518 25.8893 23.1003 24.562 23.0992 23.1786C23.0982 21.7951 22.5477 20.4687 21.5688 19.4911C20.59 18.5134 19.2629 17.9646 17.8794 17.9653C16.4959 17.966 15.1694 18.5161 14.1915 19.4947C13.2136 20.4734 12.6644 21.8003 12.6648 23.1838C12.6651 24.5673 13.215 25.8939 14.1933 26.8721C15.1717 27.8502 16.4985 28.3997 17.882 28.3997Z" fill="#A6CEE3" stroke="#1F78B4" stroke-width="0.5"/>
<path d="M17.882 54.9743H17.8822L17.8872 54.9743H17.8872C19.2707 54.973 20.597 54.4221 21.5744 53.443C22.5518 52.4639 23.1003 51.1367 23.0992 49.7532C23.0982 48.3698 22.5477 47.0433 21.5688 46.0657C20.59 45.0881 19.2629 44.5392 17.8794 44.5399C16.4959 44.5406 15.1694 45.0908 14.1915 46.0694C13.2136 47.048 12.6644 48.375 12.6648 49.7584C12.6651 51.1419 13.215 52.4686 14.1933 53.4467C15.1717 54.4249 16.4985 54.9743 17.882 54.9743Z" fill="#1F78B4" stroke="#1F78B4" stroke-width="0.5"/>
<path d="M18.0062 26.1645H18.0063L18.0127 26.1645H18.0128C19.7584 26.1628 21.432 25.4677 22.6653 24.2323C23.8986 22.9968 24.5907 21.3221 24.5894 19.5764C24.5881 17.8307 23.8934 16.157 22.6583 14.9234C21.4231 13.6898 19.7486 12.9972 18.0029 12.9981C16.2572 12.999 14.5833 13.6932 13.3494 14.928C12.1155 16.1629 11.4225 17.8373 11.423 19.583C11.4234 21.3286 12.1172 23.0027 13.3517 24.2369C14.5863 25.4711 16.2605 26.1645 18.0062 26.1645Z" fill="#1F78B4" stroke="#1F78B4" stroke-width="0.5"/>
<path d="M18.0062 46.5301H18.0064L18.0105 46.5301H18.0105C19.1635 46.5289 20.2688 46.0699 21.0833 45.2539C21.8979 44.4379 22.355 43.3318 22.3541 42.1789C22.3532 41.0259 21.8945 39.9205 21.0787 39.1057C20.2629 38.291 19.1569 37.8336 18.004 37.8342C16.851 37.8347 15.7455 38.2932 14.9305 39.1088C14.1156 39.9244 13.6579 41.0302 13.6582 42.1832C13.6585 43.3362 14.1167 44.4418 14.9321 45.257C15.7474 46.0721 16.8532 46.5301 18.0062 46.5301Z" fill="#A6CEE3" stroke="#1F78B4" stroke-width="0.5"/>
<path d="M23.4701 30.3866H23.4702L23.477 30.3866H23.4771C25.3545 30.3848 27.1543 29.6373 28.4807 28.3086C29.8071 26.9799 30.5514 25.1788 30.55 23.3014C30.5486 21.424 29.8015 19.624 28.4732 18.2973C27.1448 16.9706 25.3439 16.2259 23.4665 16.2268C21.5891 16.2277 19.7889 16.9743 18.4619 18.3023C17.1349 19.6304 16.3897 21.4311 16.3901 23.3085C16.3906 25.1859 17.1367 26.9863 18.4644 28.3136C19.7921 29.641 21.5927 30.3866 23.4701 30.3866Z" fill="#A6CEE3" stroke="#1F78B4" stroke-width="0.5"/>
<path d="M23.473 66.8956H23.4733C24.2969 66.8948 25.0866 66.5669 25.6685 65.984C26.2504 65.401 26.5769 64.6108 26.5763 63.7872C26.5757 62.9635 26.248 62.1738 25.6652 61.5917C25.0824 61.0097 24.2923 60.6829 23.4686 60.6833C22.6449 60.6838 21.8552 61.0113 21.273 61.5939C20.6908 62.1766 20.3638 62.9666 20.364 63.7903C20.3642 64.6139 20.6916 65.4038 21.2741 65.9862C21.8566 66.5685 22.6465 66.8956 23.4702 66.8956H23.473Z" fill="#A6CEE3" stroke="#1F78B4" stroke-width="0.5"/>
<path d="M23.5941 32.8702H23.5943L23.6 32.8702H23.6001C25.1811 32.8686 26.6968 32.2391 27.8138 31.1202C28.9308 30.0013 29.5576 28.4845 29.5564 26.9034C29.5552 25.3224 28.9261 23.8066 27.8075 22.6893C26.6888 21.572 25.1722 20.9448 23.5912 20.9456C22.0101 20.9464 20.4941 21.5751 19.3766 22.6935C18.259 23.8119 17.6314 25.3284 17.6318 26.9094C17.6322 28.4904 18.2606 30.0066 19.3787 31.1244C20.4968 32.2422 22.0131 32.8702 23.5941 32.8702Z" fill="#E3711A" stroke="#1F78B4" stroke-width="0.5"/>
<path d="M23.4702 14.9883H23.4703L23.4732 14.9883H23.4733C24.2969 14.9875 25.0866 14.6595 25.6685 14.0766C26.2504 13.4937 26.5769 12.7035 26.5763 11.8798C26.5757 11.0562 26.248 10.2665 25.6652 9.6844C25.0824 9.10234 24.2923 8.77559 23.4686 8.776C22.6449 8.77641 21.8552 9.10396 21.273 9.6866C20.6908 10.2692 20.3638 11.0593 20.364 11.8829C20.3642 12.7066 20.6916 13.4965 21.2741 14.0788C21.8566 14.6612 22.6465 14.9883 23.4702 14.9883Z" fill="#A6CEE3" stroke="#1F78B4" stroke-width="0.5"/>
<path d="M29.3101 49.5104H29.3104C30.2987 49.5094 31.2461 49.1159 31.9444 48.4164C32.6426 47.717 33.0344 46.7688 33.0337 45.7805C33.0329 44.7922 32.6397 43.8447 31.9404 43.1463C31.2411 42.4478 30.2931 42.0558 29.3048 42.0563C28.3165 42.0568 27.3688 42.4498 26.6702 43.1489C25.9716 43.848 25.5793 44.7959 25.5796 45.7843C25.5798 46.7726 25.9726 47.7203 26.6715 48.4191C27.3705 49.1178 28.3183 49.5104 29.3066 49.5104H29.3101Z" fill="#A6CEE3" stroke="#1F78B4" stroke-width="0.5"/>
<path d="M29.3066 59.6932H29.3068L29.3127 59.6932H29.3128C30.9597 59.6915 32.5385 59.0358 33.702 57.8703C34.8656 56.7047 35.5185 55.1247 35.5173 53.4778C35.516 51.831 34.8607 50.252 33.6955 49.0882C32.5302 47.9244 30.9504 47.271 29.3035 47.2719C27.6566 47.2727 26.0775 47.9276 24.9134 49.0926C23.7493 50.2575 23.0955 51.8372 23.0959 53.4841C23.0964 55.131 23.7509 56.7103 24.9156 57.8747C26.0802 59.039 27.6597 59.6932 29.3066 59.6932Z" fill="#A6CEE3" stroke="#1F78B4" stroke-width="0.5"/>
<path d="M29.1824 70.3727H29.1826L29.1889 70.3727H29.189C30.9347 70.3709 32.6082 69.6759 33.8415 68.4404C35.0748 67.205 35.7669 65.5302 35.7656 63.7846C35.7643 62.0389 35.0697 60.3652 33.8346 59.1316C32.5994 57.8979 30.9248 57.2054 29.1792 57.2063C27.4335 57.2072 25.7596 57.9014 24.5257 59.1362C23.2917 60.3711 22.5988 62.0455 22.5992 63.7911C22.5997 65.5368 23.2935 67.2109 24.528 68.4451C25.7625 69.6793 27.4368 70.3727 29.1824 70.3727Z" fill="#E3711A" stroke="#1F78B4" stroke-width="0.5"/>
<path d="M29.1823 16.2301H29.1824L29.1865 16.2301H29.1867C30.3396 16.2289 31.4449 15.7699 32.2595 14.9539C33.074 14.1379 33.5311 13.0318 33.5303 11.8789C33.5294 10.7259 33.0706 9.6205 32.2548 8.80574C31.4391 7.99099 30.3331 7.5336 29.1801 7.53418C28.0272 7.53476 26.9216 7.99325 26.1067 8.80882C25.2917 9.62439 24.8341 10.7303 24.8344 11.8832C24.8346 13.0362 25.2929 14.1418 26.1082 14.957C26.9236 15.7721 28.0293 16.2301 29.1823 16.2301Z" fill="#A6CEE3" stroke="#1F78B4" stroke-width="0.5"/>
<path d="M34.8947 47.0268H34.8949L34.8995 47.0268H34.8996C36.1842 47.0255 37.4158 46.514 38.3234 45.6048C39.231 44.6956 39.7404 43.4632 39.7394 42.1785C39.7384 40.8938 39.2273 39.6621 38.3183 38.7543C37.4093 37.8465 36.177 37.3368 34.8923 37.3375C33.6076 37.3381 32.3758 37.849 31.4677 38.7577C30.5597 39.6665 30.0497 40.8987 30.05 42.1833C30.0504 43.468 30.5609 44.7 31.4694 45.6083C32.378 46.5166 33.61 47.0268 34.8947 47.0268Z" fill="#A6CEE3" stroke="#1F78B4" stroke-width="0.5"/>
<path d="M34.8947 67.6407H34.8948L34.9024 67.6407H34.9025C36.9775 67.6386 38.9667 66.8125 40.4327 65.344C41.8986 63.8755 42.7213 61.8848 42.7197 59.8099C42.7181 57.7349 41.8925 55.7455 40.4244 54.2792C38.9562 52.8128 36.9658 51.9897 34.8908 51.9907C32.8158 51.9918 30.8262 52.8169 29.3595 54.2847C27.8928 55.7525 27.0692 57.7427 27.0697 59.8177C27.0702 61.8927 27.8949 63.8825 29.3623 65.3495C30.8297 66.8166 32.8197 67.6407 34.8947 67.6407Z" fill="#A6CEE3" stroke="#1F78B4" stroke-width="0.5"/>
<path d="M35.0188 51.7457H35.019L35.0247 51.7457H35.0248C36.6058 51.7441 38.1215 51.1146 39.2385 49.9957C40.3555 48.8768 40.9823 47.36 40.9811 45.7789C40.9799 44.1979 40.3508 42.6821 39.2322 41.5648C38.1135 40.4475 36.5969 39.8203 35.0158 39.8211C33.4348 39.8219 31.9188 40.4506 30.8013 41.569C29.6837 42.6874 29.0561 44.2039 29.0565 45.7849C29.0569 47.3659 29.6853 48.8821 30.8034 49.9999C31.9215 51.1177 33.4378 51.7457 35.0188 51.7457Z" fill="#E3711A" stroke="#1F78B4" stroke-width="0.5"/>
<path d="M35.0188 9.27601L35.0191 9.27601L35.0201 9.27601C35.0201 9.27601 35.0201 9.27601 35.0201 9.27601C35.3498 9.27567 35.6659 9.1444 35.8988 8.91104C36.1318 8.67769 36.2625 8.36136 36.2623 8.03163C36.262 7.70191 36.1308 7.38578 35.8975 7.15277C35.6642 6.91976 35.3479 6.78896 35.0182 6.78912C34.6885 6.78929 34.3723 6.92041 34.1393 7.15365C33.9062 7.38689 33.7753 7.70315 33.7754 8.03288C33.7755 8.3626 33.9065 8.6788 34.1397 8.91192C34.3729 9.14505 34.6891 9.27601 35.0188 9.27601Z" fill="#A6CEE3" stroke="#1F78B4" stroke-width="0.5"/>
<path d="M40.6097 52.7392H40.61C41.4337 52.7383 42.2233 52.4104 42.8052 51.8275C43.3871 51.2445 43.7136 50.4543 43.713 49.6307C43.7124 48.807 43.3847 48.0173 42.8019 47.4353C42.2191 46.8532 41.429 46.5264 40.6053 46.5269C39.7817 46.5273 38.9919 46.8548 38.4097 47.4374C37.8275 48.0201 37.5005 48.8101 37.5007 49.6338C37.5009 50.4574 37.8283 51.2473 38.4108 51.8297C38.9933 52.412 39.7832 52.7392 40.6069 52.7392H40.6097Z" fill="#A6CEE3" stroke="#1F78B4" stroke-width="0.5"/>
<path d="M43.4703 74.719H43.4706C45.4797 74.717 47.4058 73.9171 48.8252 72.4952C50.2446 71.0733 51.0411 69.1458 51.0396 67.1367C51.0381 65.1276 50.2387 63.2013 48.8171 61.7815C47.3956 60.3618 45.4683 59.5647 43.4592 59.5657C41.4501 59.5667 39.5236 60.3657 38.1035 61.7869C36.6834 63.2081 35.8859 65.1351 35.8864 67.1443C35.8869 69.1534 36.6853 71.0801 38.1062 72.5005C39.527 73.921 41.4539 74.719 43.463 74.719H43.4703Z" fill="#E3711A" stroke="#1F78B4" stroke-width="0.5"/>
<path d="M40.6069 62.6735H40.607L40.6134 62.6735H40.6135C42.3591 62.6718 44.0327 61.9768 45.266 60.7413C46.4993 59.5058 47.1914 57.8311 47.1901 56.0854C47.1888 54.3397 46.4942 52.666 45.259 51.4324C44.0238 50.1988 42.3493 49.5063 40.6036 49.5071C38.8579 49.508 37.184 50.2022 35.9501 51.4371C34.7162 52.6719 34.0232 54.3463 34.0237 56.092C34.0241 57.8377 34.7179 59.5117 35.9524 60.7459C37.187 61.9802 38.8612 62.6735 40.6069 62.6735Z" fill="#A6CEE3" stroke="#1F78B4" stroke-width="0.5"/>
<path d="M40.4829 17.9686H40.4831L40.4888 17.9686H40.4889C42.0699 17.967 43.5856 17.3375 44.7026 16.2186C45.8196 15.0997 46.4464 13.5829 46.4452 12.0018C46.444 10.4208 45.8149 8.90495 44.6963 7.78769C43.5776 6.67042 42.061 6.04322 40.4799 6.04401C38.8989 6.0448 37.3829 6.67352 36.2654 7.7919C35.1478 8.91029 34.5202 10.4268 34.5206 12.0078C34.521 13.5888 35.1494 15.105 36.2675 16.2228C37.3856 17.3406 38.9019 17.9686 40.4829 17.9686Z" fill="#B2DF8A" stroke="#1F78B4" stroke-width="0.5"/>
<path d="M46.1961 24.426L46.1963 24.426C46.5261 24.4257 46.8422 24.2944 47.0751 24.0611C47.3081 23.8277 47.4388 23.5114 47.4385 23.1817C47.4383 22.8519 47.3071 22.5358 47.0738 22.3028C46.8405 22.0698 46.5242 21.939 46.1945 21.9391C45.8648 21.9393 45.5486 22.0704 45.3155 22.3037C45.0825 22.5369 44.9516 22.8532 44.9517 23.1829C44.9517 23.5126 45.0828 23.8288 45.316 24.0619C45.5491 24.2951 45.8654 24.426 46.1951 24.426L46.1961 24.426Z" fill="#A6CEE3" stroke="#1F78B4" stroke-width="0.5"/>
<path d="M46.1985 42.0596H46.1988C47.1871 42.0586 48.1346 41.6651 48.8328 40.9656C49.531 40.2662 49.9229 39.318 49.9221 38.3297C49.9214 37.3414 49.5281 36.3939 48.8288 35.6954C48.1296 34.997 47.1815 34.605 46.1932 34.6055C45.2049 34.606 44.2572 34.999 43.5587 35.6981C42.8601 36.3972 42.4678 37.3451 42.468 38.3334C42.4683 39.3218 42.861 40.2695 43.56 40.9683C44.2589 41.667 45.2068 42.0596 46.1951 42.0596H46.1985Z" fill="#A6CEE3" stroke="#1F78B4" stroke-width="0.5"/>
<path d="M46.3192 26.4129H46.3194L46.326 26.4129H46.3261C48.1376 26.4111 49.8743 25.6898 51.1541 24.4077C52.4339 23.1256 53.1521 21.3877 53.1508 19.5762C53.1494 17.7646 52.4286 16.0278 51.1469 14.7477C49.8651 13.4675 48.1274 12.7489 46.3158 12.7498C44.5043 12.7507 42.7673 13.471 41.4868 14.7525C40.2063 16.0339 39.4872 17.7715 39.4877 19.583C39.4881 21.3946 40.2081 23.1318 41.4892 24.4126C42.7703 25.6934 44.5077 26.4129 46.3192 26.4129Z" fill="#A6CEE3" stroke="#1F78B4" stroke-width="0.5"/>
<path d="M52.0316 18.7137H52.0317L52.0346 18.7137H52.0347C52.8583 18.7129 53.648 18.3849 54.2299 17.802C54.8118 17.2191 55.1383 16.4289 55.1377 15.6052C55.1371 14.7816 54.8094 13.9919 54.2266 13.4098C53.6438 12.8277 52.8537 12.501 52.03 12.5014C51.2063 12.5018 50.4166 12.8294 49.8344 13.412C49.2522 13.9946 48.9252 14.7847 48.9254 15.6083C48.9256 16.432 49.253 17.2219 49.8355 17.8042C50.418 18.3866 51.2079 18.7137 52.0316 18.7137Z" fill="#B2DF8A" stroke="#1F78B4" stroke-width="0.5"/>
<path d="M51.9073 51.994H51.9075L51.9134 51.994H51.9135C53.5604 51.9924 55.1392 51.3367 56.3028 50.1711C57.4663 49.0056 58.1192 47.4256 58.118 45.7787C58.1167 44.1318 57.4614 42.5528 56.2962 41.389C55.1309 40.2252 53.5511 39.5719 51.9042 39.5727C50.2573 39.5735 48.6782 40.2284 47.5141 41.3934C46.35 42.5584 45.6962 44.138 45.6967 45.7849C45.6971 47.4318 46.3516 49.0111 47.5163 50.1755C48.6809 51.3399 50.2604 51.994 51.9073 51.994Z" fill="#E3711A" stroke="#1F78B4" stroke-width="0.5"/>
<path d="M62.5869 21.1973H62.587L62.5936 21.1973H62.5937C64.4053 21.1955 66.1419 20.4742 67.4218 19.1922C68.7016 17.9101 69.4198 16.1722 69.4185 14.3606C69.4171 12.5491 68.6963 10.8122 67.4145 9.53208C66.1328 8.25192 64.395 7.53327 62.5835 7.53418C60.7719 7.53509 59.0349 8.25547 57.7544 9.53691C56.474 10.8183 55.7549 12.5559 55.7553 14.3674C55.7558 16.179 56.4757 17.9162 57.7569 19.197C59.038 20.4778 60.7754 21.1973 62.5869 21.1973Z" fill="#B2DF8A" stroke="#1F78B4" stroke-width="0.5"/>
<path d="M51.9074 36.844H51.9075L51.9132 36.844H51.9133C53.4944 36.8424 55.01 36.2129 56.127 35.094C57.244 33.975 57.8708 32.4582 57.8697 30.8772C57.8685 29.2962 57.2394 27.7803 56.1207 26.6631C55.002 25.5458 53.4854 24.9186 51.9044 24.9194C50.3233 24.9202 48.8074 25.5489 47.6898 26.6673C46.5723 27.7857 45.9447 29.3021 45.9451 30.8832C45.9455 32.4642 46.5738 33.9804 47.6919 35.0982C48.81 36.216 50.3263 36.844 51.9074 36.844Z" fill="#A6CEE3" stroke="#1F78B4" stroke-width="0.5"/>
<path d="M57.6197 47.2752H57.6199L57.6248 47.2752H57.6249C59.0084 47.2738 60.3346 46.723 61.312 45.7439C62.2894 44.7648 62.8379 43.4375 62.8369 42.0541C62.8359 40.6706 62.2854 39.3442 61.3065 38.3665C60.3276 37.3889 59.0005 36.8401 57.6171 36.8408C56.2336 36.8415 54.9071 37.3916 53.9292 38.3702C52.9513 39.3489 52.4021 40.6758 52.4025 42.0593C52.4028 43.4427 52.9526 44.7694 53.931 45.7476C54.9094 46.7257 56.2362 47.2752 57.6197 47.2752Z" fill="#A6CEE3" stroke="#1F78B4" stroke-width="0.5"/>
<path d="M57.4955 62.9219H57.4957L57.501 62.9219H57.5011C58.9834 62.9205 60.4043 62.3303 61.4515 61.2813C62.4987 60.2323 63.0864 58.8102 63.0853 57.328C63.0842 55.8457 62.4944 54.4246 61.4456 53.3772C60.3968 52.3297 58.975 51.7417 57.4927 51.7424C56.0105 51.7432 54.5892 52.3326 53.5415 53.3811C52.4938 54.4296 51.9054 55.8513 51.9058 57.3336C51.9061 58.8158 52.4952 60.2373 53.5435 61.2852C54.5917 62.3332 56.0133 62.9219 57.4955 62.9219Z" fill="#A6CEE3" stroke="#1F78B4" stroke-width="0.5"/>
<path d="M57.6197 36.0989H57.6199L57.6248 36.0989H57.6249C59.0084 36.0975 60.3346 35.5467 61.312 34.5676C62.2894 33.5885 62.8379 32.2613 62.8369 30.8778C62.8359 29.4943 62.2854 28.1679 61.3065 27.1903C60.3276 26.2126 59.0005 25.6638 57.6171 25.6645C56.2336 25.6652 54.9071 26.2153 53.9292 27.194C52.9513 28.1726 52.4021 29.4995 52.4025 30.883C52.4028 32.2665 52.9526 33.5932 53.931 34.5713C54.9094 35.5494 56.2362 36.0989 57.6197 36.0989Z" fill="#A6CEE3" stroke="#1F78B4" stroke-width="0.5"/>
<path d="M55.7569 11.5112H55.757L55.762 11.5112H55.7621C57.1455 11.5098 58.4718 10.959 59.4492 9.9799C60.4266 9.00078 60.9751 7.67355 60.9741 6.29008C60.973 4.90662 60.4225 3.58021 59.4437 2.60256C58.4648 1.62492 57.1377 1.07609 55.7542 1.07678C54.3708 1.07747 53.0442 1.62763 52.0663 2.60625C51.0885 3.58488 50.5393 4.91184 50.5396 6.2953C50.54 7.67877 51.0898 9.00545 52.0682 9.98359C53.0466 10.9617 54.3734 11.5112 55.7569 11.5112Z" fill="#A6CEE3" stroke="#1F78B4" stroke-width="0.5"/>
<path d="M63.2107 52.7392H63.2109C64.0346 52.7383 64.8242 52.4104 65.4061 51.8275C65.988 51.2445 66.3146 50.4543 66.314 49.6307C66.3134 48.807 65.9856 48.0173 65.4028 47.4353C64.8201 46.8532 64.0299 46.5264 63.2063 46.5269C62.3826 46.5273 61.5928 46.8548 61.0106 47.4374C60.4284 48.0201 60.1015 48.8101 60.1017 49.6338C60.1019 50.4574 60.4292 51.2473 61.0117 51.8297C61.5942 52.412 62.3842 52.7392 63.2078 52.7392H63.2107Z" fill="#A6CEE3" stroke="#1F78B4" stroke-width="0.5"/>
<path d="M63.3329 47.0268L63.3332 47.0268C63.6629 47.0265 63.979 46.8952 64.212 46.6618C64.4449 46.4285 64.5756 46.1122 64.5754 45.7824C64.5751 45.4527 64.4439 45.1366 64.2106 44.9036C63.9773 44.6706 63.661 44.5398 63.3313 44.5399C63.0016 44.5401 62.6854 44.6712 62.4524 44.9044C62.2193 45.1377 62.0884 45.4539 62.0885 45.7837C62.0886 46.1134 62.2196 46.4296 62.4528 46.6627C62.686 46.8958 63.0022 47.0268 63.3319 47.0268L63.3329 47.0268Z" fill="#A6CEE3" stroke="#1F78B4" stroke-width="0.5"/>
<path d="M63.332 47.2752H63.3322L63.3371 47.2752H63.3372C64.7206 47.2738 66.0469 46.723 67.0243 45.7439C68.0017 44.7648 68.5502 43.4375 68.5492 42.0541C68.5481 40.6706 67.9977 39.3442 67.0188 38.3665C66.0399 37.3889 64.7128 36.8401 63.3294 36.8408C61.9459 36.8415 60.6193 37.3916 59.6415 38.3702C58.6636 39.3489 58.1144 40.6758 58.1147 42.0593C58.1151 43.4427 58.6649 44.7694 59.6433 45.7476C60.6217 46.7257 61.9485 47.2752 63.332 47.2752Z" fill="#B2DF8A" stroke="#1F78B4" stroke-width="0.5"/>
<path d="M68.9201 46.5301H68.9203L68.9244 46.5301H68.9244C70.0774 46.5289 71.1827 46.0699 71.9972 45.2539C72.8118 44.4379 73.2689 43.3318 73.268 42.1789C73.2672 41.0259 72.8084 39.9205 71.9926 39.1057C71.1769 38.291 70.0709 37.8336 68.9179 37.8342C67.765 37.8347 66.6594 38.2932 65.8445 39.1088C65.0295 39.9244 64.5719 41.0302 64.5721 42.1832C64.5724 43.3362 65.0306 44.4418 65.846 45.257C66.6614 46.0721 67.7671 46.5301 68.9201 46.5301Z" fill="#A6CEE3" stroke="#1F78B4" stroke-width="0.5"/>
<path d="M68.9201 53.9809H68.9203L68.9244 53.9809H68.9244C70.0774 53.9798 71.1827 53.5207 71.9972 52.7048C72.8118 51.8888 73.2689 50.7827 73.268 49.6297C73.2672 48.4768 72.8084 47.3714 71.9926 46.5566C71.1769 45.7418 70.0709 45.2845 68.9179 45.285C67.765 45.2856 66.6594 45.7441 65.8445 46.5597C65.0295 47.3752 64.5719 48.4811 64.5721 49.6341C64.5724 50.787 65.0306 51.8927 65.846 52.7078C66.6614 53.523 67.7671 53.9809 68.9201 53.9809Z" fill="#A6CEE3" stroke="#1F78B4" stroke-width="0.5"/>
<path d="M68.9229 52.7392H68.9232C69.7468 52.7383 70.5364 52.4104 71.1184 51.8275C71.7003 51.2445 72.0268 50.4543 72.0262 49.6307C72.0256 48.807 71.6978 48.0173 71.1151 47.4353C70.5323 46.8532 69.7422 46.5264 68.9185 46.5269C68.0948 46.5273 67.3051 46.8548 66.7229 47.4374C66.1407 48.0201 65.8137 48.8101 65.8139 49.6338C65.8141 50.4574 66.1415 51.2473 66.7239 51.8297C67.3064 52.412 68.0964 52.7392 68.9201 52.7392H68.9229Z" fill="#B2DF8A" stroke="#1F78B4" stroke-width="0.5"/>
<path d="M68.9229 56.4646H68.9232C69.7468 56.4637 70.5364 56.1358 71.1184 55.5529C71.7003 54.9699 72.0268 54.1797 72.0262 53.3561C72.0256 52.5324 71.6978 51.7427 71.1151 51.1607C70.5323 50.5786 69.7422 50.2518 68.9185 50.2523C68.0948 50.2527 67.3051 50.5802 66.7229 51.1629C66.1407 51.7455 65.8137 52.5355 65.8139 53.3592C65.8141 54.1828 66.1415 54.9727 66.7239 55.5551C67.3064 56.1374 68.0964 56.4646 68.9201 56.4646H68.9229Z" fill="#A6CEE3" stroke="#1F78B4" stroke-width="0.5"/>
<path d="M74.7576 58.4514L74.7578 58.4514C75.0875 58.451 75.4036 58.3198 75.6366 58.0864C75.8695 57.853 76.0003 57.5367 76 57.207C75.9998 56.8773 75.8686 56.5611 75.6353 56.3281C75.402 56.0951 75.0857 55.9643 74.7559 55.9645C74.4262 55.9646 74.1101 56.0958 73.877 56.329C73.6439 56.5622 73.513 56.8785 73.5131 57.2082C73.5132 57.538 73.6443 57.8542 73.8774 58.0873C74.1106 58.3204 74.4268 58.4514 74.7566 58.4514L74.7576 58.4514Z" fill="#A6CEE3" stroke="#1F78B4" stroke-width="0.5"/>
</svg>
